<?xml version="1.0" standalone="no"?>
<!DOCTYPE svg PUBLIC "-//W3C//DTD SVG 20010904//EN"
 "http://www.w3.org/TR/2001/REC-SVG-20010904/DTD/svg10.dtd">
<svg version="1.0" xmlns="http://www.w3.org/2000/svg"
 width="800.000000pt" height="800.000000pt" viewBox="0 0 800.000000 800.000000"
 preserveAspectRatio="xMidYMid meet">
<metadata>
Created by potrace 1.11, written by Peter Selinger 2001-2013
</metadata>
<g transform="translate(0.000000,800.000000) scale(0.100000,-0.100000)"
fill="#000000" stroke="none">
<path d="M4300 6641 c-14 -4 -72 -11 -130 -15 -114 -8 -138 -12 -278 -50 -138
-38 -225 -78 -300 -138 -37 -30 -93 -72 -126 -93 -32 -22 -77 -65 -100 -95
-48 -64 -106 -170 -106 -194 0 -10 -7 -31 -16 -48 -9 -18 -18 -55 -21 -82 -2
-28 -9 -56 -15 -63 -12 -15 -40 -12 -62 6 -11 9 -16 10 -16 2 0 -6 -5 -11 -11
-11 -5 0 -7 5 -4 10 3 6 1 10 -4 10 -6 0 -11 -5 -11 -11 0 -6 -7 -9 -14 -6
-10 4 -13 1 -9 -9 4 -10 9 -11 17 -5 8 7 15 4 23 -9 11 -16 9 -18 -18 -13 -28
4 -93 33 -75 33 5 0 4 6 -1 13 -18 22 -14 83 7 102 28 25 25 59 -5 73 -23 10
-29 8 -58 -19 -30 -29 -35 -31 -87 -25 -31 4 -67 15 -83 27 -44 32 -117 60
-152 57 -45 -3 -106 41 -135 97 -18 35 -38 53 -102 90 -76 44 -83 46 -132 40
-28 -4 -64 -13 -81 -20 -16 -6 -48 -15 -70 -19 -21 -4 -57 -17 -78 -28 -36
-18 -39 -22 -35 -56 3 -20 0 -47 -5 -60 -9 -19 -16 -22 -41 -16 -17 3 -38 13
-47 20 -12 11 -36 14 -99 10 -46 -3 -92 0 -102 5 -24 13 -57 -16 -39 -34 6 -6
11 -17 11 -25 0 -8 8 -20 17 -27 14 -11 20 -10 30 4 12 15 14 15 27 -1 7 -10
16 -18 21 -18 20 0 50 -39 53 -67 3 -25 -3 -39 -24 -58 -33 -30 -44 -31 -51
-5 -3 11 -9 20 -14 20 -5 0 -8 21 -7 48 2 33 -1 46 -10 44 -6 -1 -12 2 -12 8
0 5 -7 10 -15 10 -8 0 -15 -4 -15 -9 0 -5 -8 -7 -17 -5 -21 5 -74 -35 -56 -42
8 -4 9 -14 2 -36 -4 -17 -10 -32 -12 -34 -2 -2 -23 7 -48 20 -24 13 -63 29
-86 36 -41 13 -44 12 -95 -22 -106 -70 -108 -71 -168 -41 l-53 26 -42 -48 -41
-48 -55 7 c-30 4 -58 7 -64 7 -27 -1 -71 -16 -83 -28 -7 -7 -27 -13 -43 -13
-22 0 -29 5 -29 19 0 14 17 27 58 47 31 14 87 42 124 60 38 19 73 34 79 34 12
0 39 25 39 35 0 4 14 20 31 36 26 24 39 29 84 29 30 0 57 -4 60 -10 8 -13 45
-13 45 -1 0 5 -9 30 -20 55 -16 38 -28 50 -63 65 -23 10 -55 35 -71 55 l-27
36 -30 -20 c-16 -12 -29 -28 -29 -36 0 -10 -13 -14 -47 -14 -41 0 -50 4 -83
40 -20 22 -42 40 -47 40 -13 0 -23 -24 -23 -54 0 -25 -28 -56 -51 -56 -42 -1
-108 -35 -147 -78 -24 -25 -51 -47 -59 -48 -9 -2 -36 6 -62 15 -25 10 -65 22
-89 26 -31 5 -58 20 -94 52 -64 57 -82 63 -145 50 -48 -10 -54 -9 -90 15 -33
23 -45 25 -91 21 l-52 -6 2 -451 3 -451 25 2 c24 2 45 4 195 19 60 6 60 6 103
-35 23 -22 42 -45 42 -50 0 -5 14 -14 30 -20 23 -7 30 -16 30 -35 0 -14 -5
-28 -11 -32 -6 -3 -9 -15 -6 -25 3 -11 1 -19 -4 -19 -5 0 -9 10 -9 22 0 12 -9
31 -20 43 -17 19 -29 21 -70 17 -30 -3 -55 0 -64 7 -7 6 -34 15 -59 20 -36 6
-51 5 -68 -7 -13 -9 -42 -15 -71 -14 l-48 1 1 -544 0 -543 33 -4 c18 -2 43 -1
57 3 57 16 105 10 147 -20 22 -17 57 -33 79 -36 21 -4 53 -16 71 -26 26 -15
53 -19 120 -19 103 1 294 31 299 47 3 7 -9 18 -24 27 -89 45 -55 176 46 176
47 0 146 -25 189 -47 28 -14 39 -15 80 -5 26 7 113 15 193 17 81 2 158 9 171
14 34 13 68 62 68 98 0 28 20 53 53 66 22 8 50 -20 41 -42 -18 -43 -17 -61 5
-61 12 0 30 -5 41 -12 15 -10 29 -10 65 0 56 15 74 7 114 -52 32 -46 70 -76
96 -76 9 0 35 -11 58 -24 47 -28 119 -33 152 -10 11 8 36 14 57 14 32 0 45 8
98 60 34 33 65 58 70 55 5 -3 11 -1 15 5 3 5 -1 10 -9 10 -9 0 -16 4 -16 9 0
12 -62 20 -81 10 -23 -12 -97 13 -115 40 -9 12 -14 23 -13 25 41 27 66 34 137
39 75 5 84 4 102 -15 16 -17 18 -30 13 -61 -5 -34 -4 -39 9 -34 57 22 158 46
171 41 12 -4 69 15 154 52 6 3 16 -3 22 -14 10 -19 3 -43 -30 -104 -16 -30
-11 -35 39 -43 62 -9 66 -13 48 -41 -20 -30 -20 -78 -1 -94 9 -7 13 -21 10
-31 -5 -16 -2 -16 44 3 47 20 49 22 28 33 -34 16 -35 66 -2 96 14 13 32 36 40
50 14 26 13 27 -18 39 -56 20 -62 26 -65 64 -2 31 1 38 22 46 41 15 106 -13
106 -47 0 -7 6 -13 13 -13 15 0 94 75 120 113 22 33 59 35 88 6 19 -19 21 -29
15 -75 -6 -51 -5 -55 29 -88 39 -39 41 -46 23 -65 -11 -11 -8 -12 12 -6 91 28
90 27 127 113 20 45 39 82 42 82 4 0 8 -39 9 -87 2 -86 3 -89 36 -120 50 -47
93 -114 113 -176 15 -46 23 -56 46 -61 15 -3 27 -12 27 -19 0 -31 36 -85 95
-142 34 -33 64 -67 67 -76 4 -9 -12 -39 -39 -75 -58 -77 -106 -151 -138 -214
-43 -84 -63 -79 -114 25 -18 36 -35 65 -38 65 -2 0 -2 -23 2 -50 6 -41 4 -50
-8 -50 -9 0 -17 5 -19 10 -2 6 -18 13 -37 15 -18 2 -41 7 -51 10 -23 7 -50
-20 -50 -50 0 -32 -5 -34 -79 -25 -43 6 -88 4 -133 -5 -37 -7 -68 -11 -68 -9
0 2 -14 -10 -30 -28 -23 -24 -33 -29 -42 -20 -16 16 -28 15 -28 -2 0 -17 54
-31 72 -19 7 4 78 8 158 8 138 0 146 -1 168 -23 12 -13 22 -31 22 -41 0 -11 7
-21 15 -25 9 -3 15 0 15 8 0 7 8 20 18 27 15 12 16 12 6 -1 -9 -12 -5 -19 22
-37 28 -18 35 -19 45 -7 6 8 21 14 32 14 16 0 18 -3 9 -12 -15 -15 12 -48 39
-48 12 0 26 -15 39 -40 11 -22 24 -40 28 -40 17 0 31 -65 23 -102 -5 -21 -6
-38 -3 -38 3 0 1 -5 -6 -12 -7 -7 -12 -17 -12 -23 0 -5 5 -3 10 5 7 11 10 12
10 2 0 -20 -27 -45 -33 -29 -2 6 -7 -3 -11 -20 -4 -18 -11 -33 -14 -33 -4 0
-8 -27 -9 -60 -2 -58 -2 -60 22 -60 21 0 25 -5 25 -31 0 -35 17 -72 30 -64 13
8 23 -91 15 -161 -7 -64 -7 -64 -38 -64 -48 0 -207 48 -207 62 0 5 -8 8 -19 8
-10 0 -24 6 -30 14 -7 8 -25 18 -41 21 -16 3 -40 17 -55 31 -14 13 -32 24 -39
24 -7 0 -25 9 -39 20 -14 11 -30 20 -36 20 -6 0 -11 4 -11 8 0 4 -27 24 -60
43 -33 18 -60 37 -60 42 0 4 -6 7 -13 7 -7 0 -33 13 -58 28 -123 78 -168 96
-270 107 -31 4 -38 1 -43 -18 -7 -28 11 -48 24 -27 7 10 10 11 10 3 0 -7 6
-13 14 -13 7 0 16 -10 19 -21 4 -16 11 -20 26 -16 12 3 21 2 21 -2 0 -4 15
-14 33 -22 59 -29 152 -82 155 -91 2 -4 8 -8 14 -8 8 0 66 -42 154 -114 18
-15 36 -26 41 -26 6 0 40 -23 77 -51 37 -28 82 -57 101 -65 18 -7 36 -18 40
-23 5 -9 106 -51 133 -55 8 -1 17 -7 20 -12 4 -5 26 -18 49 -29 60 -29 79 -70
74 -158 -1 -26 -76 -98 -88 -86 -7 7 -24 5 -49 -3 -24 -8 -69 -12 -114 -10
-106 5 -112 5 -145 -1 -32 -5 -111 22 -155 53 -31 22 -128 60 -154 60 -10 0
-46 22 -81 49 -95 75 -246 122 -495 156 -69 10 -132 20 -140 23 -8 3 -20 6
-26 7 -27 1 -45 28 -39 57 6 27 5 28 -19 22 -17 -4 -26 -2 -26 5 0 15 -51 60
-67 61 -18 0 -83 60 -83 75 0 25 -24 21 -48 -7 -49 -58 -58 -38 -65 143 -5
117 -12 131 -79 165 -18 9 -41 23 -50 31 -26 23 -119 25 -174 5 -50 -18 -77
-49 -81 -91 -1 -14 0 -20 3 -13 5 10 9 10 20 1 12 -10 11 -14 -4 -28 -9 -9
-23 -28 -31 -43 -8 -15 -17 -27 -20 -26 -3 1 -13 -2 -23 -6 -9 -4 -29 -1 -47
8 -16 9 -43 16 -59 16 -35 0 -41 -12 -96 -199 -41 -136 -58 -175 -82 -189 -14
-8 -15 -14 -6 -42 11 -29 9 -34 -11 -50 -12 -10 -33 -38 -45 -64 -13 -25 -27
-48 -32 -51 -10 -6 -60 -109 -60 -124 0 -6 -7 -11 -15 -11 -20 0 -19 -40 1
-55 15 -10 13 -14 -16 -35 -29 -20 -43 -45 -75 -125 -11 -26 -12 -32 -14 -49
0 -8 -17 -31 -36 -51 -27 -29 -40 -36 -59 -33 -18 4 -32 -2 -47 -18 -21 -22
-23 -22 -63 -8 -22 9 -49 20 -59 25 -13 7 -23 6 -33 -2 -7 -6 -21 -8 -30 -5
-14 5 -15 1 -10 -31 3 -21 10 -78 16 -127 5 -49 14 -92 19 -96 16 -10 11 -88
-7 -95 -8 -3 -18 -1 -22 5 -7 11 -30 -85 -30 -125 0 -13 7 -28 15 -35 16 -14
21 -80 6 -95 -5 -6 -12 -25 -16 -42 -6 -29 -3 -34 17 -42 13 -5 39 -21 56 -36
18 -15 64 -40 102 -54 84 -33 78 -51 -17 -51 -74 0 -113 -15 -113 -44 0 -12 7
-43 15 -70 8 -27 14 -51 12 -53 -5 -5 -117 127 -117 138 0 6 -5 7 -11 4 -7 -5
-6 -12 4 -23 12 -15 38 -67 130 -265 34 -72 95 -140 152 -167 24 -11 46 -28
49 -36 4 -9 13 -14 21 -10 8 3 15 1 15 -4 0 -5 -25 -8 -56 -5 -64 5 -116 36
-223 135 -35 33 -68 57 -73 54 -11 -7 -10 -54 1 -54 13 0 61 -85 61 -108 0
-11 7 -25 15 -32 8 -7 15 -19 15 -26 0 -30 151 -179 215 -211 57 -30 114 -33
219 -13 66 12 95 8 66 -10 -10 -6 49 -10 163 -10 97 0 177 3 177 7 0 3 -12 27
-26 51 -26 44 -26 48 -14 106 6 34 18 135 25 226 23 278 36 320 131 423 43 46
54 65 54 92 0 28 -5 35 -30 44 -31 10 -42 45 -18 53 8 3 5 15 -11 37 -27 37
-23 45 49 97 38 27 46 40 56 86 20 86 53 200 63 212 4 6 11 25 14 41 14 82
109 315 128 315 5 0 9 -15 9 -34 0 -19 4 -38 10 -41 5 -3 48 -6 95 -6 70 0 87
-3 92 -16 4 -9 -2 -97 -11 -196 -19 -192 -30 -778 -14 -742 6 14 6 10 3 -15
-4 -19 -8 -51 -9 -70 -2 -19 -1 -23 1 -8 l4 27 32 -18 c18 -9 47 -18 66 -19
20 -2 40 -11 52 -25 16 -19 18 -20 19 -4 0 29 1 32 17 50 10 10 12 17 5 17 -7
0 -12 10 -12 23 0 18 2 19 10 7 8 -11 9 -9 5 11 -4 17 1 40 15 68 12 23 20 50
17 61 -6 25 19 60 44 60 10 0 19 -4 19 -9 0 -5 6 -16 13 -23 14 -14 76 -175
83 -218 7 -38 25 -92 40 -122 8 -14 14 -33 14 -42 0 -9 7 -19 15 -22 8 -4 15
-17 15 -31 0 -13 4 -21 10 -18 12 7 10 75 -2 75 -5 0 -8 6 -6 13 2 12 -15 69
-37 122 -7 17 -20 66 -30 110 -9 44 -23 105 -31 136 -8 30 -14 69 -14 85 0 17
-5 35 -12 42 -9 9 -9 12 0 12 7 0 12 -4 12 -10 0 -5 4 -9 8 -7 13 3 181 -175
203 -214 5 -11 16 -19 24 -19 8 0 15 -4 15 -10 0 -5 24 -21 54 -35 30 -14 65
-34 78 -45 14 -10 37 -22 52 -26 15 -3 30 -13 33 -20 3 -8 11 -14 18 -14 7 0
18 -7 25 -15 7 -8 16 -13 20 -10 11 7 53 -42 45 -54 -4 -7 4 -11 19 -11 15 0
31 -8 38 -20 7 -11 18 -20 25 -20 7 0 15 -11 19 -24 8 -31 41 -62 79 -70 26
-7 28 -9 12 -18 -15 -8 -16 -12 -5 -25 7 -8 11 -30 9 -49 -1 -19 2 -34 8 -34
6 0 11 -15 11 -34 0 -29 5 -36 30 -45 28 -9 43 -41 19 -41 -6 0 -8 -7 -5 -15
8 -22 -24 -32 -36 -11 -10 18 -48 13 -83 -10 -11 -8 -29 -14 -40 -15 -19 0
-19 -1 -1 -8 11 -4 21 -18 23 -31 2 -13 8 -30 15 -37 6 -7 7 -17 3 -21 -4 -4
-10 -1 -12 6 -6 16 -28 15 -43 -3 -10 -12 75 -14 670 -15 697 0 710 0 710 37
0 8 10 24 23 37 12 13 45 50 74 83 62 71 121 114 169 122 l34 6 -26 28 c-22
24 -33 28 -63 24 -39 -4 -138 -45 -158 -64 -7 -6 -32 -14 -55 -18 -24 -4 -51
-11 -60 -16 -12 -7 -21 -3 -32 13 -47 66 15 130 221 229 37 18 70 34 73 34 3
1 21 8 41 17 20 9 47 19 60 23 13 3 43 15 66 26 24 10 49 19 56 19 32 0 295
134 317 161 3 3 20 14 38 23 l34 17 -7 -23 c-4 -13 -10 -28 -14 -34 -16 -29
-144 -167 -218 -234 -45 -41 -116 -106 -158 -145 -42 -38 -114 -120 -160 -180
-96 -127 -130 -165 -145 -165 -5 0 -10 -4 -10 -10 0 -5 16 -10 35 -10 19 0 35
4 35 9 0 5 17 15 38 22 20 7 55 24 77 38 22 14 60 35 85 48 25 12 54 31 64 42
11 12 27 21 37 21 10 0 21 4 24 10 3 5 20 16 38 25 18 8 59 37 92 63 33 27 68
51 78 55 9 3 17 13 17 22 0 8 4 15 10 15 5 0 34 25 64 55 29 30 61 55 69 55
10 0 13 7 10 18 -3 12 1 19 10 19 11 0 12 -8 6 -35 -4 -19 -12 -38 -17 -41 -6
-3 -20 -31 -32 -61 -12 -30 -26 -60 -31 -67 -6 -6 -26 -44 -45 -85 -19 -40
-48 -98 -63 -128 -16 -30 -32 -65 -36 -78 -6 -22 -5 -23 37 -20 39 3 45 7 63
43 11 22 32 58 48 80 15 22 27 45 27 51 0 6 9 19 19 28 11 10 23 31 26 47 4
16 12 32 19 36 7 5 24 26 38 48 77 121 212 283 223 266 11 -19 1 -98 -17 -141
-32 -74 -59 -124 -77 -145 -10 -11 -32 -40 -49 -65 -16 -25 -40 -55 -51 -67
-12 -12 -21 -26 -21 -31 0 -5 -13 -28 -30 -50 -16 -23 -30 -45 -30 -49 0 -4
-10 -17 -22 -30 l-21 -23 43 0 c63 0 104 18 119 51 14 33 37 40 27 9 -20 -66
-31 -60 103 -60 108 0 121 2 122 18 0 9 2 40 4 67 2 28 6 133 10 235 4 113 16
249 31 348 21 140 24 200 25 430 0 149 6 313 13 372 7 58 9 109 5 115 -5 5 -9
22 -9 37 0 35 29 38 79 7 26 -16 44 -19 72 -15 46 7 53 -3 63 -84 13 -102 27
-129 68 -142 30 -9 46 -8 75 3 53 20 76 14 97 -26 18 -33 18 -34 -3 -61 -26
-33 -27 -44 -1 -44 30 0 24 -27 -10 -45 -37 -19 -40 -39 -5 -33 14 3 25 2 25
-2 0 -13 -60 -90 -70 -90 -6 0 -10 -7 -10 -15 0 -28 41 -139 71 -193 16 -29
45 -94 63 -145 65 -179 157 -421 170 -446 7 -14 16 -53 20 -85 4 -33 16 -93
28 -133 l21 -73 353 0 352 0 21 33 c11 18 32 44 47 57 34 32 74 95 74 117 0
21 47 92 78 116 25 21 27 35 10 72 -7 15 -19 25 -32 25 -30 0 -94 -48 -127
-97 -26 -37 -35 -43 -66 -43 -29 0 -44 8 -75 41 -28 29 -37 46 -33 60 4 11 2
19 -4 19 -6 0 -11 7 -11 15 0 8 -4 15 -10 15 -5 0 -10 -8 -10 -17 0 -13 -6 -9
-19 12 -17 27 -17 31 -3 42 14 11 11 13 -17 13 -30 0 -33 2 -29 25 4 17 1 25
-8 25 -17 0 -9 46 17 98 11 20 19 42 19 50 0 18 36 63 44 55 3 -3 6 -20 6 -36
0 -17 18 -61 40 -99 22 -39 40 -73 40 -77 0 -4 8 -15 19 -25 16 -15 19 -15 31
-1 11 13 11 31 2 93 -6 42 -14 101 -17 130 -3 30 -19 93 -34 140 -16 48 -32
104 -36 125 -3 21 -9 45 -12 54 -5 13 -3 13 15 4 26 -14 28 -4 10 46 -9 25
-17 33 -30 30 -14 -4 -21 5 -32 46 -8 29 -17 70 -21 92 -3 22 -12 58 -19 80
-17 49 -48 158 -70 245 -56 213 -166 552 -224 690 -19 44 -13 -4 8 -66 24 -71
24 -74 6 -74 -10 0 -14 -12 -13 -45 2 -34 5 -44 16 -40 10 4 12 -2 8 -21 -2
-14 3 -52 13 -84 10 -33 16 -61 13 -64 -3 -2 4 -35 15 -73 29 -96 45 -163 45
-182 0 -9 4 -19 9 -22 19 -13 21 -85 3 -113 -10 -15 -15 -29 -11 -33 3 -4 -1
-14 -10 -24 -20 -22 -10 -39 22 -39 22 0 23 -2 14 -21 -7 -11 -9 -23 -6 -26 3
-4 1 -12 -5 -19 -8 -10 -5 -15 14 -19 14 -4 34 -4 45 -1 16 5 20 2 20 -19 0
-14 -1 -25 -2 -25 -1 0 -16 4 -34 9 -20 6 -30 6 -27 0 4 -5 1 -9 -5 -9 -6 0
-10 -8 -8 -17 2 -12 -4 -19 -19 -21 -20 -3 -23 1 -23 30 0 18 -7 45 -14 60 -8
16 -15 36 -15 45 1 41 -12 137 -20 152 -7 14 -22 72 -26 106 -3 22 -17 73 -38
140 -12 39 -20 74 -19 79 2 4 -5 31 -14 58 -8 27 -17 59 -19 71 -2 12 -11 58
-19 102 -9 44 -27 148 -41 230 -36 220 -54 298 -85 383 -67 184 -189 431 -213
433 -61 4 -60 3 -149 117 -36 46 -65 72 -81 72 -3 0 -7 -13 -9 -30 -3 -16 -2
-30 2 -30 10 0 34 -52 85 -185 26 -66 51 -131 56 -144 21 -52 -1 -28 -38 41
-28 53 -47 77 -70 87 -26 11 -32 21 -38 57 -6 41 -20 63 -32 50 -3 -3 0 -12 7
-21 11 -13 8 -13 -21 -3 -19 6 -37 16 -41 22 -5 7 -8 4 -8 -6 0 -10 9 -23 20
-30 29 -18 25 -25 -12 -20 -22 3 -35 0 -43 -12 -11 -15 -13 -14 -19 10 -4 15
-3 31 1 35 14 14 3 79 -14 79 -11 0 -13 7 -8 30 6 27 4 30 -18 30 -40 0 -49
-21 -41 -92 4 -35 11 -69 17 -75 6 -8 6 -13 0 -13 -16 0 -6 -106 13 -142 l18
-33 7 25 c4 14 7 42 8 63 1 44 9 46 41 12 l23 -25 -27 0 c-23 0 -27 -3 -21
-17 4 -10 10 -31 14 -46 3 -15 10 -27 15 -27 19 3 23 -27 24 -203 2 -208 20
-350 51 -400 25 -41 26 -47 6 -47 -9 0 -15 -9 -15 -24 0 -36 -20 -43 -43 -15
-19 24 -29 26 -132 33 -28 1 -72 11 -98 21 -36 13 -50 15 -61 6 -7 -6 -59 -16
-115 -21 -88 -8 -130 -18 -221 -48 -8 -3 -18 -6 -22 -7 -5 -2 -11 -4 -15 -5
-20 -6 140 -29 205 -29 39 -1 72 -5 72 -10 0 -12 -49 -22 -78 -17 -23 5 -80
-10 -97 -26 -6 -6 -5 -12 4 -17 10 -7 4 -15 -27 -35 -23 -14 -46 -26 -52 -26
-6 0 -13 -7 -16 -15 -4 -8 -12 -15 -20 -15 -8 0 -14 -9 -14 -19 0 -12 -9 -21
-25 -25 -14 -4 -23 -11 -20 -16 8 -13 52 -13 60 1 5 7 15 5 31 -6 14 -9 33
-15 42 -14 33 3 42 -1 42 -18 0 -15 -2 -16 -10 -3 -8 13 -13 13 -38 -2 -16
-10 -32 -15 -35 -12 -3 4 -22 -3 -41 -15 -22 -14 -37 -18 -41 -11 -9 14 -35
12 -35 -3 0 -7 19 -23 43 -34 33 -17 37 -22 20 -22 -22 -1 -34 -21 -13 -21 5
0 -2 -12 -15 -26 -29 -32 -31 -49 -7 -64 16 -11 16 -11 -1 -6 -10 3 -27 1 -37
-4 -13 -7 -21 -7 -25 0 -3 5 -16 10 -28 10 -27 0 -65 24 -120 77 -23 22 -52
45 -64 52 -23 12 -77 5 -68 -9 7 -11 -21 -20 -66 -20 -36 0 -39 2 -39 28 0 20
3 23 10 12 8 -12 11 -12 28 3 10 9 26 17 35 17 9 0 18 4 21 8 8 13 -43 62 -65
62 -11 0 -22 7 -25 15 -4 8 -9 13 -13 11 -4 -3 -37 -6 -73 -7 -37 -2 -65 -6
-63 -10 2 -3 -16 -7 -40 -7 -24 -1 -47 2 -50 8 -3 5 -24 10 -45 10 -47 0 -145
36 -183 67 -35 28 -57 30 -57 4 0 -30 -15 -33 -44 -10 -23 18 -26 27 -26 85 0
35 4 64 8 64 5 0 15 11 22 25 18 34 28 31 36 -10 4 -25 12 -35 25 -35 10 0 21
-4 24 -10 4 -6 -5 -10 -19 -10 -19 0 -26 -5 -26 -18 0 -20 35 -24 48 -6 4 5
29 9 56 9 36 1 52 6 62 20 11 15 11 21 1 27 -9 6 -9 10 2 17 11 7 10 10 -5 14
-16 4 -16 5 -2 6 9 0 23 -8 32 -20 10 -14 20 -19 34 -15 11 4 23 2 27 -4 3 -5
15 -10 26 -10 11 0 39 -9 61 -20 23 -11 45 -20 50 -20 8 0 23 -12 84 -63 l33
-28 3 28 c5 44 -3 124 -12 118 -4 -3 -19 4 -33 15 -14 11 -29 20 -34 20 -8 0
-86 49 -109 69 -27 23 -120 65 -137 63 -9 -2 -20 4 -23 13 -4 10 -13 14 -27 9
-11 -4 -41 -6 -66 -6 -32 1 -51 -4 -66 -18 -19 -17 -26 -19 -54 -9 l-32 11 8
62 c4 33 7 74 7 91 -1 19 6 35 17 43 26 18 24 29 -10 67 -20 23 -29 44 -29 67
0 19 -9 52 -21 74 -16 29 -21 57 -21 109 l0 70 50 1 c48 2 51 0 56 -26 8 -39
48 -78 89 -86 19 -3 35 -10 35 -15 0 -14 36 -10 49 5 20 23 -8 88 -46 106 -23
11 -34 25 -41 52 -13 51 0 69 31 40 24 -23 43 -30 32 -12 -3 6 3 10 14 10 12
0 21 -6 21 -14 0 -8 14 -23 30 -33 17 -9 30 -21 30 -25 0 -11 46 -58 57 -58 5
0 20 -11 33 -25 13 -14 32 -25 42 -25 10 0 18 -6 18 -12 1 -20 80 -99 101
-101 10 -1 21 -7 23 -14 3 -7 13 -13 22 -13 9 0 27 -12 39 -26 30 -35 43 -14
16 25 -12 16 -21 31 -21 34 0 10 -59 67 -69 67 -6 0 -16 10 -22 23 -19 43 -36
68 -81 117 -25 27 -43 52 -39 55 3 3 -5 8 -17 12 -12 3 -22 10 -22 17 0 6 -45
59 -100 118 -55 58 -100 113 -100 122 0 13 11 15 74 10 59 -6 80 -3 107 11 61
32 66 34 88 28 22 -6 30 12 9 20 -10 4 -10 6 -1 6 7 1 10 7 7 15 -3 9 1 13 12
13 21 -2 27 13 14 33 -8 13 -13 13 -31 2 -18 -12 -23 -11 -35 5 -38 51 -29
126 22 171 43 37 47 38 111 16 44 -15 47 -15 60 2 7 11 17 24 22 31 8 8 5 14
-9 18 -11 4 -20 10 -20 15 0 5 -33 19 -72 31 -40 12 -75 23 -77 25 -2 2 2 17
9 33 6 17 10 36 8 43 -3 7 -28 -57 -56 -142 -27 -85 -64 -186 -81 -224 -27
-59 -33 -67 -47 -56 -26 22 -175 253 -159 246 8 -3 15 0 15 7 0 7 18 28 40 47
22 19 40 41 40 48 0 12 3 12 17 1 9 -8 14 -9 10 -3 -3 6 0 20 8 30 8 10 15 29
15 41 0 12 7 28 15 36 8 8 12 17 8 20 -7 7 43 57 57 57 7 0 11 18 9 48 -1 26
1 54 6 62 5 9 4 15 -4 18 -9 3 -9 7 0 18 8 10 8 29 2 69 -6 30 -7 55 -4 55 4
0 7 9 8 19 1 11 14 39 29 63 26 40 28 49 26 140 -3 104 1 118 49 178 15 19 44
78 64 130 20 52 42 100 50 106 8 6 36 9 62 7 44 -4 51 -2 80 29 30 30 32 37
23 67 -10 36 0 74 24 88 8 4 16 26 18 48 2 32 7 40 23 40 34 1 42 13 49 74 8
72 32 100 71 83 20 -9 25 -19 25 -51 0 -57 11 -101 25 -101 14 0 38 -33 49
-67 6 -17 -4 -33 -43 -77 -44 -48 -49 -59 -41 -80 5 -13 7 -26 4 -28 -7 -8
-22 -101 -17 -113 2 -7 27 -15 55 -18 30 -4 55 -13 63 -23 11 -16 17 -16 59
-4 55 15 143 8 165 -14 13 -14 13 -18 -4 -36 -10 -11 -23 -20 -30 -20 -7 0
-20 -9 -30 -20 -10 -11 -26 -20 -36 -20 -10 0 -33 -13 -51 -29 l-32 -28 28
-18 c23 -15 31 -16 45 -7 9 7 29 20 44 30 16 9 45 29 65 45 35 27 59 29 90 5
13 -11 16 -46 4 -65 -4 -6 -36 -26 -72 -45 -64 -33 -77 -48 -98 -116 -12 -38
-6 -43 49 -43 90 0 92 2 104 69 9 46 21 72 50 107 l38 47 66 -5 c36 -3 83 -1
103 5 33 10 38 16 43 47 12 73 15 79 50 95 19 9 62 18 94 21 33 2 65 6 71 10
14 9 6 78 -10 83 -16 6 -100 80 -122 107 -20 25 -24 55 -8 55 6 0 10 7 10 15
0 24 40 18 83 -12 55 -38 70 -26 78 63 4 38 12 83 18 101 15 39 1 73 -31 73
-46 0 -103 -46 -134 -109 -33 -67 -49 -79 -75 -55 -27 24 -24 37 16 80 24 25
35 46 35 67 0 21 12 41 45 73 49 49 85 67 119 58 16 -4 36 4 67 28 51 39 100
62 184 86 35 11 60 24 60 32 0 18 33 29 72 23 30 -5 88 18 105 42 5 6 8 5 8
-3 0 -7 5 -10 10 -7 6 4 8 15 5 26 -9 27 36 36 80 15 19 -9 35 -18 35 -20 0
-8 -90 -66 -102 -66 -8 0 -19 -5 -26 -12 -8 -8 -5 -14 15 -25 14 -7 32 -13 40
-13 27 0 74 -31 83 -54 18 -47 -3 -74 -39 -52 -11 7 -13 5 -8 -8 4 -10 3 -15
-4 -11 -5 4 -21 -1 -35 -10 -14 -9 -29 -13 -32 -9 -4 4 -1 9 5 11 10 4 9 8 -2
19 -8 9 -20 12 -26 8 -6 -3 -14 -2 -18 4 -4 7 -20 4 -46 -8 -29 -14 -63 -19
-121 -20 -60 0 -85 -4 -94 -15 -7 -8 -18 -15 -25 -15 -17 0 -41 -37 -49 -76
-7 -32 11 -64 37 -64 23 0 67 -47 67 -72 0 -14 9 -33 20 -43 24 -22 26 -68 3
-86 -27 -22 -73 -101 -73 -124 0 -12 9 -30 20 -40 11 -10 20 -24 20 -30 0 -7
7 -15 15 -19 8 -3 15 -13 15 -21 0 -10 21 -25 53 -39 28 -13 63 -35 75 -49 20
-21 33 -25 78 -25 37 0 60 -5 73 -16 9 -9 25 -16 35 -16 9 0 28 -11 41 -24 23
-23 24 -26 10 -53 -19 -35 -19 -52 -1 -59 11 -4 12 -13 5 -37 -12 -41 -26 -49
-79 -43 -25 2 -66 -1 -92 -6 -37 -9 -49 -17 -59 -40 -6 -15 -18 -28 -26 -28
-22 0 -27 -30 -7 -45 10 -7 19 -22 19 -32 0 -32 39 -26 84 12 52 43 71 45 71
8 0 -31 -5 -40 -37 -67 -19 -15 -25 -16 -38 -6 -10 8 -15 9 -15 1 0 -14 -74
-91 -88 -91 -6 0 -14 -4 -17 -10 -3 -6 4 -9 17 -9 13 1 52 -3 87 -9 54 -10 68
-9 95 6 22 12 56 17 119 17 83 0 88 -1 110 -27 12 -15 41 -34 64 -43 23 -9 43
-24 45 -33 2 -10 -9 -36 -24 -58 -35 -52 -35 -57 0 -86 49 -42 63 -72 50 -110
-6 -18 -15 -37 -19 -42 -5 -6 -9 -18 -9 -28 0 -14 8 -18 35 -18 19 0 56 -7 81
-16 52 -17 96 -10 159 27 17 9 39 18 50 20 27 3 145 -32 145 -43 0 -5 -4 -6
-10 -3 -5 3 -10 2 -10 -4 0 -20 43 -33 92 -29 38 4 57 12 82 37 37 36 49 38
83 11 45 -35 93 -16 93 36 -1 30 -20 64 -36 64 -5 0 -14 8 -21 19 -10 16 -6
21 36 40 27 12 56 30 66 41 17 18 16 20 -9 50 -29 35 -33 68 -12 109 22 42 44
55 100 61 l51 5 3 310 c1 171 0 320 -3 333 -5 20 -8 21 -28 11 -12 -7 -26 -18
-30 -25 -13 -22 -25 -16 -32 16 -4 17 -15 35 -26 40 -10 6 -18 16 -16 22 1 6
-11 18 -28 26 -16 8 -49 33 -73 54 -59 54 -84 50 -94 -15 -8 -57 -27 -82 -63
-85 -67 -5 -90 50 -43 104 24 27 28 39 23 64 -8 36 -20 44 -61 42 -35 -3 -64
25 -64 60 0 15 -10 18 -62 20 -35 1 -76 1 -93 0 -65 -4 -81 -1 -105 18 -14 11
-41 27 -60 35 -19 9 -39 21 -45 28 -15 18 -82 67 -93 67 -5 0 -21 10 -35 23
-27 23 -39 24 -165 16 -23 -1 -44 0 -46 2 -2 2 -7 21 -11 41 -6 34 -5 39 18
47 14 5 27 16 29 23 4 10 10 10 30 1 19 -9 31 -9 49 0 27 14 44 14 77 3 17 -6
22 -15 22 -41 0 -71 17 -80 69 -38 51 42 80 112 57 135 -12 13 -28 45 -31 63
0 6 -5 18 -9 28 -12 25 2 87 19 87 8 0 15 -5 15 -11 0 -5 4 -8 9 -4 13 8 32
-30 25 -48 -5 -15 11 -56 26 -67 4 -3 19 -31 34 -63 27 -59 33 -101 17 -112
-6 -3 -9 -14 -8 -25 1 -20 16 -20 94 0 27 7 33 5 38 -10 5 -16 45 -32 86 -35
26 -1 69 -38 69 -58 0 -10 -6 -33 -14 -52 -14 -32 -14 -34 7 -41 12 -4 25 -11
28 -17 11 -16 39 0 39 22 0 31 49 83 71 76 14 -5 29 5 55 34 32 35 40 39 68
34 17 -3 39 -14 50 -23 16 -16 17 -23 8 -50 -9 -25 -8 -36 4 -56 22 -33 52
-30 98 10 21 19 52 38 70 43 l31 9 3 361 2 362 -22 21 c-22 20 -22 22 -5 35
16 11 19 35 24 175 l5 162 -23 -7 c-13 -4 -31 -13 -39 -20 -8 -7 -23 -15 -34
-16 -15 -3 -19 -14 -20 -57 0 -28 4 -54 9 -57 6 -2 -8 -2 -30 1 -70 11 -89 51
-50 108 27 39 26 56 -4 56 -10 0 -37 14 -59 30 -51 36 -75 37 -135 5 -51 -27
-73 -26 -114 5 -18 12 -38 19 -53 16 -14 -2 -28 -5 -31 -5 -4 -1 -18 -10 -32
-21 l-26 -21 30 -29 c29 -28 30 -29 10 -39 -11 -6 -32 -11 -46 -11 -29 0 -81
-25 -105 -52 -8 -9 -41 -20 -72 -26 -49 -8 -61 -6 -87 11 -39 24 -39 46 -1 54
17 3 33 10 36 14 3 5 14 9 24 9 37 0 70 22 65 44 -2 12 -4 26 -4 32 -1 7 -25
13 -54 16 -34 3 -66 13 -85 27 -21 15 -39 20 -55 16 -14 -4 -28 -2 -31 4 -4 6
-22 11 -41 11 -19 0 -37 5 -41 11 -4 7 -20 8 -43 4 -90 -17 -148 -8 -183 29
-20 20 -35 24 -109 29 -61 3 -92 1 -110 -9 -32 -18 -74 -17 -89 1 -24 29 -48
27 -95 -10 -64 -48 -97 -47 -146 5 -49 51 -97 55 -151 13 -20 -16 -45 -34 -56
-42 -24 -17 -20 -31 9 -31 10 0 19 -4 19 -9 0 -5 9 -12 19 -16 10 -3 21 -14
24 -24 4 -16 -4 -21 -39 -30 -23 -6 -49 -19 -56 -29 -16 -20 -22 -22 -110 -27
-38 -3 -73 -7 -78 -10 -4 -3 -10 0 -12 6 -2 7 -13 9 -26 5 -18 -6 -22 -15 -22
-49 0 -53 -21 -83 -63 -92 -34 -8 -77 -41 -77 -61 0 -8 -14 -10 -43 -7 -41 5
-46 3 -74 -32 l-31 -37 25 -44 c24 -42 24 -46 9 -69 -9 -14 -21 -25 -26 -25
-5 0 -13 -15 -18 -32 -5 -22 -14 -33 -25 -32 -9 0 -33 1 -52 2 -28 2 -33 5
-28 20 3 9 15 26 26 36 20 19 20 20 -9 43 -16 12 -34 23 -41 23 -6 0 -13 5
-15 12 -3 7 -26 13 -56 14 -29 1 -50 -2 -46 -7 3 -5 -7 -9 -22 -9 -15 0 -25 3
-22 6 4 3 -8 31 -26 62 -18 31 -43 91 -56 132 -25 82 -75 196 -95 220 -7 8
-16 26 -20 40 -4 14 -18 37 -31 53 -13 16 -25 47 -29 75 -11 86 -26 137 -50
168 -24 32 -185 121 -255 142 -49 14 -170 22 -200 13z m3230 -561 c13 -9 13
-11 0 -20 -9 -6 -18 -6 -24 0 -6 6 -19 10 -30 10 -17 0 -18 2 -6 10 19 12 41
12 60 0z m-1114 -115 c18 -14 18 -14 -3 -8 -19 4 -23 1 -23 -18 l0 -24 -14 25
c-21 40 1 54 40 25z m-4437 -26 c20 -19 23 -29 19 -71 -3 -27 -1 -51 4 -54 6
-4 5 -11 -1 -17 -6 -6 -11 -20 -11 -30 0 -14 4 -17 18 -12 43 18 63 17 88 -5
13 -13 24 -28 24 -34 -1 -18 -45 -63 -79 -80 -33 -18 -39 -42 -20 -78 6 -11 7
-23 3 -27 -20 -14 -32 -48 -23 -63 7 -12 -2 -27 -37 -62 -25 -25 -54 -46 -65
-46 -11 0 -22 -7 -25 -15 -7 -18 -24 -20 -24 -2 0 6 -22 22 -48 34 -26 13 -65
34 -87 48 -22 14 -47 29 -55 34 -11 7 -12 16 -5 38 12 32 50 41 110 24 31 -8
38 -7 55 12 30 31 25 67 -16 107 -46 46 -53 74 -23 106 16 17 33 24 60 24 29
0 42 6 58 26 19 24 19 28 6 55 -16 29 -19 67 -9 93 9 23 56 20 83 -5z m4486
12 c3 -5 1 -12 -4 -15 -5 -3 -11 1 -15 9 -6 16 9 21 19 6z m-55 -45 c0 -11
-19 -15 -25 -6 -3 5 1 10 9 10 9 0 16 -2 16 -4z m-5168 -119 c19 -15 18 -49
-1 -55 -27 -9 -100 35 -101 61 0 12 84 7 102 -6z m1879 -20 c-13 -13 -26 -3
-16 12 3 6 11 8 17 5 6 -4 6 -10 -1 -17z m-1 -32 c0 -8 -4 -15 -10 -15 -5 0
-10 7 -10 15 0 8 5 15 10 15 6 0 10 -7 10 -15z m3865 -65 c3 -5 1 -10 -4 -10
-6 0 -11 5 -11 10 0 6 2 10 4 10 3 0 8 -4 11 -10z m-415 -105 c0 -16 -27 -32
-37 -22 -3 4 -3 13 0 22 8 20 37 20 37 0z m-4367 -49 c23 -18 11 -50 -38 -95
-31 -29 -41 -33 -72 -28 -19 4 -38 9 -41 12 -11 10 22 56 66 90 50 39 59 41
85 21z m5085 -34 c3 -9 -2 -13 -14 -10 -9 1 -19 9 -22 16 -3 9 2 13 14 10 9
-1 19 -9 22 -16z m327 -12 c6 -4 22 -10 36 -14 43 -10 46 -63 6 -82 -17 -7
-40 -6 -85 4 -52 11 -63 17 -68 38 -4 14 -1 36 7 50 12 22 17 24 53 18 23 -3
46 -10 51 -14z m-6296 -60 c8 0 1 -13 -19 -31 -25 -25 -38 -30 -61 -25 -16 3
-40 -1 -56 -9 -32 -17 -62 -19 -83 -5 -19 12 -3 42 26 46 11 2 34 10 50 19 20
11 45 14 79 11 28 -3 56 -5 64 -6z m627 -120 c8 0 17 -13 21 -30 5 -28 9 -30
42 -29 67 4 107 -25 80 -57 -17 -20 -85 -18 -101 4 -20 27 -66 53 -73 42 -3
-6 -13 -10 -22 -10 -9 0 -26 -9 -38 -20 -18 -17 -27 -19 -48 -11 -14 5 -51 12
-83 15 -49 4 -63 10 -92 39 -30 30 -33 37 -23 56 16 29 49 26 83 -6 37 -35 79
-35 118 2 21 20 36 26 54 23 13 -3 31 -1 38 3 8 5 16 2 21 -6 4 -8 15 -15 23
-15z m346 -6 c11 -24 9 -29 -20 -55 -32 -29 -56 -34 -99 -23 -25 7 -29 30 -12
68 13 28 26 33 82 35 31 1 39 -3 49 -25z m4353 -63 c3 -5 1 -12 -5 -16 -5 -3
-10 1 -10 9 0 18 6 21 15 7z m-6010 -62 c39 -11 75 -35 75 -50 0 -4 -16 -5
-36 -4 -31 3 -41 -1 -63 -26 -14 -16 -34 -29 -43 -29 -10 0 -36 -5 -57 -12
-30 -9 -38 -17 -38 -35 0 -30 -19 -52 -41 -48 -9 2 -20 4 -23 4 -9 1 2 50 11
56 5 3 5 19 0 35 -5 19 -5 30 1 30 6 0 8 4 5 8 -10 16 11 30 84 54 41 14 77
26 80 27 3 0 23 -4 45 -10z m1019 -5 c11 -4 13 -11 5 -31 -5 -13 -7 -29 -4
-33 3 -5 -6 -17 -20 -26 -28 -18 -24 -29 25 -64 24 -17 32 -18 61 -7 19 7 43
20 54 30 11 10 33 26 49 34 29 15 30 15 59 -21 33 -42 61 -46 109 -16 41 25
82 25 122 1 22 -14 49 -19 94 -18 68 0 81 -5 63 -27 -12 -14 -74 -31 -98 -27
-7 1 -13 -2 -13 -7 0 -4 -7 -17 -15 -28 -10 -12 -14 -14 -13 -4 2 10 -10 15
-45 18 -43 3 -51 0 -81 -31 -19 -19 -48 -56 -66 -82 -20 -28 -37 -44 -46 -41
-7 3 -16 1 -19 -5 -4 -5 -19 -16 -35 -24 -25 -13 -32 -13 -56 0 -22 11 -49 13
-115 8 -60 -4 -88 -2 -93 6 -4 6 -18 11 -31 11 -26 0 -45 25 -45 60 0 29 24
35 70 16 41 -16 65 -14 73 8 10 26 -11 39 -64 37 -40 0 -55 3 -65 18 -8 10
-31 21 -54 24 -58 8 -90 31 -90 66 0 34 14 41 81 41 47 0 49 1 49 28 0 37 10
49 44 58 17 4 41 13 55 20 29 16 33 16 55 8z m-760 -70 c11 -8 30 -14 42 -14
31 0 40 -29 11 -34 -68 -14 -88 -14 -115 0 -29 14 -47 39 -38 52 8 13 80 11
100 -4z m1506 -104 c0 -5 -4 -10 -10 -10 -5 0 -10 5 -10 10 0 6 5 10 10 10 6
0 10 -4 10 -10z m800 -1 c0 -5 5 -7 11 -4 7 5 8 -5 3 -32 -4 -21 -7 -39 -8
-39 0 -1 -18 5 -38 13 -41 16 -48 38 -20 59 21 16 52 18 52 3z m-630 -10 c0
-6 -9 -13 -21 -16 -11 -3 -18 -11 -16 -17 3 -7 -2 -21 -10 -31 -14 -19 -15
-18 -9 14 3 18 6 39 6 45 0 6 11 13 25 14 14 1 25 -3 25 -9z m4020 -34 c9 -45
-12 -71 -59 -73 -24 -2 -45 3 -54 12 -8 8 -17 12 -21 9 -3 -4 -6 3 -6 15 0 29
65 72 105 69 25 -2 31 -7 35 -32z m160 -50 c26 -16 42 -35 45 -53 3 -15 12
-40 20 -55 11 -20 12 -34 5 -45 -5 -10 -10 -12 -10 -7 0 6 -12 12 -27 13 -25
2 -155 63 -176 82 -5 4 -4 18 3 30 36 66 75 76 140 35z m-4610 -13 c0 -15 107
-35 149 -28 46 7 81 -8 81 -36 0 -9 6 -19 13 -21 9 -4 9 -7 -1 -15 -10 -7 -10
-11 3 -22 13 -11 21 -11 36 -2 20 13 78 16 127 6 36 -7 66 -46 57 -75 -8 -25
-55 -49 -95 -49 -18 0 -49 -12 -74 -29 -23 -16 -55 -31 -72 -33 -23 -2 -28 -7
-26 -25 6 -41 -67 -59 -96 -23 -16 18 -156 70 -191 70 -27 0 -69 -62 -69 -103
0 -19 -3 -40 -7 -46 -9 -16 -46 -13 -65 4 -28 25 -79 9 -98 -31 -19 -41 -47
-52 -73 -28 -21 19 -25 64 -7 82 6 6 13 17 14 24 1 7 6 33 10 57 l7 44 -57 -7
c-39 -5 -62 -4 -71 4 -32 27 -115 8 -115 -26 0 -22 -62 -27 -121 -10 -80 24
-129 60 -129 95 0 33 34 61 74 61 14 0 28 5 31 10 11 19 63 10 93 -15 35 -30
101 -34 150 -10 27 14 34 14 69 -2 21 -9 46 -24 55 -31 11 -9 30 -12 50 -9 22
3 45 -2 69 -16 35 -20 37 -20 72 -4 20 10 60 22 90 28 47 10 59 9 93 -9 21
-10 62 -22 89 -25 28 -3 58 -9 68 -12 12 -5 16 -3 12 7 -4 9 10 34 30 58 49
58 38 67 -66 51 -71 -11 -84 -10 -105 4 -13 8 -24 21 -25 28 -2 25 -6 53 -13
85 -7 28 -5 32 13 32 12 0 21 -4 21 -8z m1206 -62 c3 -14 7 -30 9 -37 7 -23
-14 -24 -58 -5 -36 16 -43 24 -41 43 1 13 3 24 3 24 1 0 19 0 41 0 35 0 42 -3
46 -25z m2584 16 c0 -24 -28 -66 -56 -84 -36 -23 -74 -22 -74 2 0 26 26 64 50
74 24 10 80 16 80 8z m610 -81 c0 -8 -4 -15 -9 -15 -13 0 -22 16 -14 24 11 11
23 6 23 -9z m-6096 -72 c29 -13 44 -15 79 -7 54 13 67 9 67 -22 0 -23 -3 -24
-59 -24 -33 0 -63 -5 -67 -11 -7 -12 -82 -5 -126 13 -42 16 -37 46 10 53 31 6
44 9 59 14 1 1 18 -7 37 -16z m6186 -8 c33 -17 60 -62 70 -117 7 -37 -5 -53
-16 -23 -4 8 -10 13 -14 10 -4 -3 -13 9 -20 25 -7 17 -19 30 -27 30 -43 0 -95
53 -78 80 9 15 52 12 85 -5z m430 -16 c11 -19 10 -20 -9 -9 -12 6 -21 15 -21
20 0 18 19 11 30 -11z m-6766 -13 c-6 -16 -97 -57 -106 -48 -4 4 14 19 40 33
51 27 73 32 66 15z m2411 -29 c28 0 66 4 87 8 29 6 40 3 57 -14 53 -53 6 -96
-109 -97 -83 0 -115 -12 -124 -46 -3 -13 -23 -35 -44 -49 -36 -25 -40 -25 -59
-10 -32 26 -35 48 -8 69 17 13 24 31 27 63 3 36 9 47 37 66 25 17 40 21 60 15
14 -4 49 -6 76 -5z m4825 -123 c0 -3 -6 -12 -14 -20 -21 -21 -46 -17 -46 6 0
16 7 20 30 20 17 0 30 -3 30 -6z m-300 -15 c0 -8 5 -7 16 2 13 11 19 8 39 -17
21 -26 22 -30 8 -41 -29 -22 -99 20 -86 53 6 17 23 19 23 3z m-364 -85 c28
-29 32 -59 8 -50 -9 3 -21 6 -29 6 -15 0 -26 35 -18 56 7 19 12 18 39 -12z
m894 -52 c11 -13 20 -35 20 -48 0 -13 4 -24 9 -24 16 0 81 -182 81 -227 0 -29
-28 -34 -62 -10 -16 10 -28 16 -28 12 0 -3 -10 1 -22 9 -28 20 -48 20 -48 1 0
-19 -19 -20 -26 -1 -3 8 -18 16 -34 20 -36 7 -49 45 -30 82 11 19 21 24 51 24
24 0 39 5 43 16 11 29 6 53 -13 64 -22 11 -44 70 -35 93 12 33 64 27 94 -11z
m-624 -52 c21 -27 46 -53 56 -56 42 -13 49 -94 7 -94 -11 0 -22 -7 -26 -16 -4
-12 -14 -14 -34 -10 -16 3 -29 1 -29 -4 0 -6 -9 -10 -20 -10 -14 0 -26 14 -41
45 -12 25 -30 50 -40 56 -11 5 -19 15 -19 22 0 10 -16 12 -61 9 -45 -3 -64 -1
-70 9 -15 24 -10 31 16 25 16 -4 34 0 50 10 13 9 30 14 37 12 6 -2 36 8 67 24
30 15 58 28 62 28 4 0 24 -22 45 -50z m326 -127 c14 -16 31 -38 37 -50 6 -12
17 -20 24 -17 7 2 30 -2 50 -11 33 -13 37 -19 37 -50 0 -21 10 -51 25 -73 28
-43 27 -81 -6 -121 l-19 -23 -55 31 c-30 17 -68 31 -85 31 -20 0 -42 11 -67
34 -67 59 -103 71 -103 33 0 -24 -31 -57 -54 -57 -7 0 -19 7 -27 16 -10 13
-10 17 0 24 8 4 11 12 7 18 -3 5 1 15 9 22 8 7 15 21 15 32 0 25 28 78 41 78
29 0 83 37 106 72 14 21 29 38 32 38 4 0 19 -12 33 -27z m265 -540 c-9 -2 -15
-9 -12 -14 3 -5 -1 -6 -9 -3 -26 10 -18 24 12 23 17 -1 20 -3 9 -6z m-4292
-295 c-4 -42 -6 -43 -20 -18 -9 17 -10 29 -3 37 14 18 26 8 23 -19z m839 -294
c9 -22 7 -114 -1 -114 -5 0 -16 12 -27 26 -16 23 -17 31 -7 65 12 41 25 49 35
23z m76 -62 c0 -5 -7 -9 -15 -9 -8 0 -15 4 -15 9 0 4 7 8 15 8 8 0 15 -4 15
-8z m-2615 -342 c22 -5 51 -11 65 -14 61 -11 77 -29 38 -42 -13 -4 -27 -13
-33 -21 -14 -19 -85 -23 -112 -5 -15 9 -23 10 -23 3 0 -6 -5 -11 -10 -11 -7 0
-7 6 0 19 5 11 10 33 10 50 0 34 4 35 65 21z m4345 -9 c0 -14 -18 -23 -30 -16
-6 4 -8 11 -5 16 8 12 35 12 35 0z m-4190 -161 c0 -5 -4 -10 -10 -10 -5 0 -10
5 -10 10 0 6 5 10 10 10 6 0 10 -4 10 -10z m-230 -4 c0 -3 -4 -8 -10 -11 -5
-3 -10 -1 -10 4 0 6 5 11 10 11 6 0 10 -2 10 -4z m202 -68 c-9 -9 -15 -9 -24
0 -9 9 -7 12 12 12 19 0 21 -3 12 -12z m2582 -194 c4 -10 1 -14 -6 -12 -15 5
-23 28 -10 28 5 0 13 -7 16 -16z m-1559 -151 c-11 -21 -19 -45 -20 -53 0 -8
-8 -16 -18 -18 -9 -2 -17 -10 -17 -18 0 -8 -8 -18 -17 -21 -10 -4 -22 -12 -26
-20 -11 -18 -67 -46 -67 -33 0 5 -7 10 -15 10 -8 0 -15 -5 -15 -11 0 -8 -4 -8
-15 1 -9 8 -12 22 -8 41 3 18 1 29 -6 29 -6 0 -11 7 -11 15 0 8 5 15 11 15 6
0 25 16 41 35 17 19 35 32 40 29 4 -3 8 0 8 5 0 6 11 11 24 11 14 0 31 6 39
14 16 17 68 25 81 14 6 -5 2 -23 -9 -45z m-215 -37 c0 -3 -4 -8 -10 -11 -5 -3
-10 -1 -10 4 0 6 5 11 10 11 6 0 10 -2 10 -4z m2206 -106 c15 0 19 -25 6 -34
-18 -11 -52 7 -52 26 0 14 5 18 16 14 9 -3 22 -6 30 -6z m989 -70 c3 -5 19
-10 34 -10 45 0 69 -28 77 -87 6 -50 5 -53 -15 -53 -12 0 -31 11 -43 25 -25
29 -50 32 -72 9 -9 -8 -24 -14 -34 -12 -13 3 -17 14 -17 55 1 28 7 58 14 67
15 18 47 21 56 6z m-975 -109 c0 -6 -4 -12 -9 -15 -13 -8 -42 4 -35 15 7 12
44 12 44 0z m-10 -72 c0 -5 8 -9 17 -9 12 0 14 -3 6 -11 -14 -14 -77 3 -81 22
-2 12 4 15 28 11 16 -2 30 -8 30 -13z m30 -48 c0 -8 -52 -31 -71 -31 -23 0 -6
29 19 33 48 7 52 7 52 -2z m-1597 -38 c-7 -2 -19 -2 -25 0 -7 3 -2 5 12 5 14
0 19 -2 13 -5z m57 -3 c0 -5 8 -10 18 -10 13 0 14 2 3 9 -20 13 100 4 152 -10
23 -7 47 -13 52 -13 6 -1 10 -17 10 -36 0 -28 -6 -37 -29 -50 -22 -11 -30 -12
-33 -2 -3 6 -13 12 -24 12 -10 0 -28 8 -38 17 -11 9 -30 18 -43 20 -12 2 -25
8 -29 14 -4 7 -12 5 -23 -6 -9 -9 -16 -12 -16 -6 0 6 -9 20 -20 31 -12 12 -15
20 -7 20 8 0 7 4 -3 10 -12 8 -11 10 8 10 12 0 22 -4 22 -10z m-50 -20 c0 -5
-2 -10 -4 -10 -3 0 -8 5 -11 10 -3 6 -1 10 4 10 6 0 11 -4 11 -10z m1395 -10
c4 -6 11 -8 16 -5 5 4 9 1 9 -4 0 -15 -75 -82 -119 -106 -38 -21 -211 -38
-211 -21 0 5 -8 2 -17 -5 -10 -7 -15 -10 -11 -5 3 4 -1 16 -10 26 -20 25 -22
57 -4 72 8 7 53 13 105 14 51 2 114 9 141 18 27 8 53 13 57 10 4 -2 10 0 14 6
3 5 10 10 15 10 5 0 12 -5 15 -10z m402 -103 c7 -12 -17 -67 -31 -67 -24 -1
-48 -50 -41 -87 6 -36 3 -41 -103 -158 -10 -11 -27 -35 -38 -53 -18 -32 -53
-50 -72 -38 -5 3 -24 1 -41 -5 -23 -8 -35 -8 -45 0 -7 6 -16 8 -19 5 -8 -9 37
-44 56 -44 8 0 36 -9 62 -21 55 -24 50 -39 -18 -46 -38 -5 -43 -8 -40 -27 6
-30 -45 -87 -103 -114 -27 -13 -62 -30 -79 -39 -16 -9 -51 -27 -77 -40 -26
-14 -61 -40 -77 -59 -39 -44 -77 -60 -97 -40 -9 9 -10 17 -4 21 13 8 13 62 0
70 -19 12 -10 42 16 54 21 9 24 14 14 26 -17 21 8 61 77 123 32 30 67 62 78
73 12 10 34 19 51 19 16 0 35 5 42 12 8 8 12 8 12 1 0 -6 9 -13 20 -16 11 -3
20 -2 20 3 0 4 3 22 7 40 4 21 2 31 -4 27 -11 -7 -44 28 -35 38 4 3 0 10 -7
15 -12 7 -12 11 2 24 9 9 19 25 22 36 3 11 15 20 25 20 11 0 20 10 24 25 4 15
13 25 25 25 12 0 21 11 27 33 7 24 16 33 36 35 32 4 43 26 22 47 -12 11 -12
15 -2 16 7 0 24 3 38 6 14 2 40 5 58 6 18 1 36 8 40 14 21 34 144 65 159 40z
m-2289 -37 c-7 -16 -39 -57 -70 -92 -87 -95 -107 -120 -123 -155 -9 -18 -23
-33 -32 -33 -17 0 -98 79 -158 155 -22 28 -46 54 -52 58 -7 4 -13 19 -13 32 0
20 5 25 28 27 55 3 132 -5 151 -16 26 -17 211 21 239 49 3 3 14 5 24 5 16 0
17 -3 6 -30z m2725 -111 c8 -13 2 -25 -31 -59 -23 -23 -42 -46 -42 -51 0 -13
-68 -72 -99 -85 -32 -13 -56 -4 -56 23 0 12 -13 21 -40 29 -50 14 -58 39 -15
47 17 4 39 2 50 -5 15 -10 24 -9 46 2 14 8 29 21 32 30 9 23 56 61 70 55 7 -2
20 4 30 15 19 23 40 23 55 -1z m-4928 -39 c8 -24 -15 -61 -35 -58 -17 4 -27
58 -11 58 6 0 11 7 11 15 0 20 28 8 35 -15z m3820 -51 c4 -6 13 -8 20 -5 8 3
19 -1 25 -9 8 -10 4 -16 -18 -28 -24 -12 -34 -12 -58 -1 -20 8 -23 13 -11 13
10 1 15 6 12 11 -7 12 2 30 15 30 5 0 12 -5 15 -11z m2510 -96 c-2 -7 -11 -13
-20 -13 -19 0 -21 60 -3 78 10 10 14 6 20 -20 4 -18 5 -39 3 -45z m-3252 -37
c-1 -41 -6 -72 -13 -76 -7 -4 -9 -13 -5 -20 4 -6 -1 -20 -10 -30 -9 -10 -14
-24 -10 -29 3 -6 0 -11 -8 -11 -9 0 -12 -9 -9 -30 2 -16 8 -30 12 -30 5 0 7
-28 6 -62 -1 -51 -6 -68 -25 -90 -28 -32 -43 -36 -35 -10 4 9 -5 4 -20 -13
-30 -35 -31 -39 -11 -55 8 -7 15 -19 15 -28 0 -8 3 -13 6 -9 3 3 16 -3 28 -14
11 -12 38 -29 59 -40 43 -22 45 -31 16 -79 -12 -19 -22 -44 -23 -55 -1 -15 -9
-20 -41 -21 -22 -1 -45 3 -52 8 -19 15 -92 -1 -103 -22 -15 -29 -12 -48 10
-55 11 -3 20 -15 20 -25 0 -30 -31 -13 -80 45 -84 98 -267 281 -366 366 -58
50 -125 104 -270 218 -105 83 -154 132 -154 158 0 13 25 15 203 10 184 -4 291
3 442 28 87 14 191 21 200 14 15 -15 77 -9 120 11 22 11 54 18 70 17 l30 -2
-2 -69z m1162 -66 l20 -9 -20 0 c-11 0 -29 4 -40 9 l-20 9 20 0 c11 0 29 -4
40 -9z m2196 -44 c1 -11 1 -25 0 -29 -1 -4 3 -16 9 -27 7 -13 7 -21 0 -25 -7
-4 -7 -12 0 -25 5 -10 10 -26 10 -34 0 -19 -53 -45 -100 -48 -33 -3 -35 -1
-40 32 -3 19 -11 34 -17 33 -19 -4 -3 34 20 47 12 6 38 33 57 60 35 49 59 56
61 16z m-4836 -256 c-3 -5 -10 -10 -16 -10 -5 0 -9 5 -9 10 0 6 7 10 16 10 8
0 12 -4 9 -10z m-1175 -155 c0 -8 -9 -15 -19 -15 -11 0 -22 -3 -24 -7 -9 -14
-130 -9 -134 5 -3 8 7 12 29 13 18 0 42 4 53 9 35 15 95 12 95 -5z m4625 -334
c-3 -16 -7 -44 -7 -61 -1 -30 -18 -56 -18 -26 0 9 -8 13 -26 11 -23 -2 -25 0
-18 29 3 17 11 36 17 41 7 7 8 4 4 -7 -4 -10 -2 -18 3 -18 6 0 10 5 10 12 0
11 29 48 37 48 3 0 2 -13 -2 -29z m-135 -21 c0 -5 -2 -10 -4 -10 -3 0 -8 5
-11 10 -3 6 -1 10 4 10 6 0 11 -4 11 -10z m-2231 -92 c11 -23 18 -44 14 -47
-3 -4 -8 0 -10 7 -3 6 -15 12 -28 12 -18 0 -24 7 -27 30 -3 21 0 30 11 33 9 3
17 5 17 6 1 0 11 -18 23 -41z"/>
<path d="M4720 1170 c0 -5 6 -10 14 -10 8 0 18 5 21 10 3 6 -3 10 -14 10 -12
0 -21 -4 -21 -10z"/>
<path d="M4717 1084 c-4 -4 -2 -13 4 -21 9 -10 8 -13 -4 -13 -10 0 -14 -6 -11
-15 8 -19 23 -19 31 1 7 18 -9 58 -20 48z"/>
<path d="M4700 940 c-12 -22 -4 -30 32 -30 21 0 28 5 28 20 0 11 -3 20 -7 21
-5 0 -16 2 -26 4 -9 2 -22 -5 -27 -15z"/>
<path d="M1395 6050 c-3 -5 1 -10 10 -10 9 0 13 5 10 10 -3 6 -8 10 -10 10 -2
0 -7 -4 -10 -10z"/>
<path d="M5061 4994 c0 -11 3 -14 6 -6 3 7 2 16 -1 19 -3 4 -6 -2 -5 -13z"/>
<path d="M7962 4803 c-27 -11 -41 -57 -30 -101 6 -23 14 -42 18 -42 4 0 11
-11 14 -25 8 -31 24 -32 31 -2 9 35 1 170 -10 173 -5 1 -16 0 -23 -3z"/>
<path d="M7935 4610 c3 -5 8 -10 11 -10 2 0 4 5 4 10 0 6 -5 10 -11 10 -5 0
-7 -4 -4 -10z"/>
<path d="M5973 4461 c-17 -27 2 -40 66 -48 45 -5 55 -3 76 17 36 34 31 41 -22
38 -27 -1 -61 1 -78 5 -24 6 -32 3 -42 -12z"/>
<path d="M6252 4468 c-6 -6 -12 -24 -12 -38 0 -31 -37 -70 -67 -70 -32 0 -53
-10 -53 -26 0 -8 -6 -11 -17 -7 -11 4 -14 3 -9 -5 4 -7 16 -12 26 -12 24 0 33
-30 19 -66 -6 -16 -11 -52 -11 -81 -1 -43 -4 -53 -24 -64 -30 -16 -30 -25 0
-45 14 -8 28 -29 31 -45 4 -16 10 -31 15 -34 4 -3 27 11 50 30 31 26 48 33 65
29 13 -3 31 -1 42 4 22 11 43 5 43 -13 0 -8 8 -30 18 -49 13 -28 23 -36 45
-36 28 0 36 13 15 27 -7 4 -21 25 -32 45 -11 23 -23 35 -32 31 -11 -4 -14 5
-14 35 0 23 -5 44 -10 47 -7 4 -7 11 -2 18 5 7 8 38 6 69 -4 61 3 69 66 73
109 6 104 4 120 38 14 29 14 33 0 34 -16 1 -60 16 -120 40 -19 8 -44 29 -55
46 -15 24 -29 33 -55 35 -19 2 -41 -3 -48 -10z"/>
<path d="M6102 4391 c-10 -6 -10 -10 2 -20 16 -13 29 -2 18 16 -4 7 -13 8 -20
4z"/>
<path d="M5070 4234 c-12 -22 -12 -29 1 -52 18 -33 55 -40 74 -15 20 25 18 46
-4 71 -25 29 -55 28 -71 -4z"/>
<path d="M1742 4143 c-20 -8 -42 -59 -42 -99 0 -29 -7 -44 -37 -72 -37 -34
-44 -60 -24 -87 32 -42 15 -67 -63 -89 -33 -10 -70 -31 -97 -55 -37 -34 -42
-42 -33 -58 12 -19 9 -19 162 -7 88 7 92 6 92 -13 0 -36 -37 -58 -109 -63 -62
-5 -66 -6 -69 -31 -3 -22 2 -29 29 -38 18 -6 42 -11 55 -11 12 0 39 -16 60
-35 20 -19 39 -35 41 -35 2 0 24 13 48 30 36 25 44 36 50 72 3 24 20 70 36
104 29 56 35 62 95 88 65 29 103 66 67 66 -10 0 -31 9 -48 20 -42 28 -96 26
-129 -5 -18 -17 -39 -25 -61 -25 l-35 0 4 67 c7 99 20 107 151 99 71 -5 110
-13 132 -26 30 -17 34 -18 48 -3 22 21 15 53 -16 72 -14 9 -41 26 -60 38 -19
13 -37 23 -42 23 -4 0 -25 11 -46 24 -28 18 -141 61 -145 55 -1 0 -7 -3 -14
-6z"/>
<path d="M1437 4114 c-11 -12 13 -44 34 -44 24 0 37 29 18 41 -16 10 -43 12
-52 3z"/>
<path d="M2266 4091 c-3 -5 3 -20 14 -34 11 -13 24 -35 29 -49 5 -13 27 -36
49 -52 40 -27 41 -27 76 -11 l36 17 -20 28 c-40 57 -77 88 -116 99 -47 13 -61
14 -68 2z"/>
<path d="M826 4083 c-12 -12 -5 -23 14 -23 11 0 20 4 20 9 0 11 -26 22 -34 14z"/>
<path d="M4913 4073 c9 -9 20 -13 24 -9 4 4 1 11 -7 16 -25 16 -35 11 -17 -7z"/>
<path d="M1560 4071 c0 -11 26 -22 34 -14 12 12 5 23 -14 23 -11 0 -20 -4 -20
-9z"/>
<path d="M4736 4055 c4 -8 11 -15 16 -15 6 0 5 6 -2 15 -7 8 -14 15 -16 15 -2
0 -1 -7 2 -15z"/>
<path d="M5330 4042 c-42 -3 -46 -5 -56 -38 -11 -33 -10 -36 14 -45 33 -13 72
-3 72 16 0 8 4 15 9 15 13 0 22 30 14 43 -5 7 -27 11 -53 9z"/>
<path d="M4770 3962 c0 -10 33 -42 42 -42 3 0 8 9 11 19 3 14 -2 21 -17 25
-29 8 -36 7 -36 -2z"/>
<path d="M6017 3944 c-20 -20 -6 -35 31 -32 47 4 52 32 7 36 -17 2 -34 0 -38
-4z"/>
<path d="M2200 3915 c0 -8 9 -15 20 -15 13 0 18 5 14 15 -4 8 -12 15 -20 15
-8 0 -14 -7 -14 -15z"/>
<path d="M3430 3753 c0 -25 31 -99 54 -128 12 -14 9 0 -9 48 -13 37 -29 75
-34 85 -9 15 -10 15 -11 -5z"/>
<path d="M6095 3734 c19 -20 19 -48 0 -64 -23 -19 -96 -13 -127 10 -38 28 -35
11 5 -27 49 -47 109 -83 137 -84 14 0 41 -6 60 -12 29 -10 34 -16 32 -37 -2
-14 -10 -32 -18 -41 -12 -13 -9 -20 16 -51 28 -34 33 -36 60 -27 20 7 35 7 49
0 33 -18 89 -13 111 9 22 22 27 60 8 60 -7 1 -21 17 -30 37 -17 36 -17 38 2
55 28 26 27 96 -1 132 -24 30 -69 56 -98 56 -13 0 -21 -9 -26 -30 -8 -36 -35
-53 -70 -44 -18 4 -25 13 -25 30 0 26 -5 30 -63 38 -33 4 -36 3 -22 -10z"/>
<path d="M7325 3478 c2 -25 29 -36 41 -17 4 7 -1 18 -11 26 -26 18 -32 16 -30
-9z"/>
<path d="M1563 3403 c-7 -15 -13 -34 -13 -43 0 -23 -26 -45 -82 -69 -27 -11
-48 -25 -48 -31 0 -13 0 -13 52 10 55 24 98 57 98 75 0 8 18 25 41 38 43 26
42 31 -6 41 -26 5 -32 2 -42 -21z"/>
<path d="M2860 3416 c0 -2 7 -7 16 -10 8 -3 12 -2 9 4 -6 10 -25 14 -25 6z"/>
<path d="M5437 3353 c-4 -3 -23 -6 -42 -5 -19 1 -35 -3 -35 -8 0 -10 18 -14
58 -10 12 1 22 -3 22 -9 0 -16 77 -14 83 2 3 7 -4 19 -16 27 -15 9 -22 10 -25
1 -2 -6 -8 -11 -13 -11 -6 0 -7 5 -4 10 7 11 -18 14 -28 3z"/>
<path d="M6503 3343 c-7 -2 -13 -13 -13 -24 0 -28 89 -28 115 1 10 11 16 20
14 21 -17 5 -107 6 -116 2z"/>
<path d="M5540 3320 c0 -14 7 -20 21 -20 15 0 19 4 15 16 -3 9 -6 18 -6 20 0
2 -7 4 -15 4 -8 0 -15 -9 -15 -20z"/>
<path d="M4740 3326 c0 -2 7 -6 15 -10 8 -3 15 -1 15 4 0 6 -7 10 -15 10 -8 0
-15 -2 -15 -4z"/>
<path d="M5052 3311 c2 -9 13 -17 26 -19 31 -5 29 24 -3 31 -20 3 -25 1 -23
-12z"/>
<path d="M4848 3313 c6 -2 18 -2 25 0 6 3 1 5 -13 5 -14 0 -19 -2 -12 -5z"/>
<path d="M6370 3225 c7 -9 15 -13 17 -11 7 7 -7 26 -19 26 -6 0 -6 -6 2 -15z"/>
<path d="M6430 3142 c0 -5 9 -20 19 -33 15 -18 22 -21 31 -13 20 20 7 49 -23
52 -15 2 -27 -1 -27 -6z"/>
<path d="M5490 3016 c0 -20 43 -69 135 -155 159 -148 164 -153 185 -186 10
-16 25 -57 34 -89 10 -39 26 -70 47 -92 18 -19 36 -34 40 -34 18 0 16 51 -6
115 -14 39 -25 82 -25 96 0 42 -29 164 -40 167 -5 2 -10 17 -10 33 0 16 -4 29
-10 29 -5 0 -10 7 -10 15 0 8 -4 15 -9 15 -5 0 -14 13 -21 29 -11 27 -15 29
-69 30 -32 0 -71 5 -87 11 -27 11 -154 23 -154 16z"/>
<path d="M2380 2990 c0 -5 5 -10 10 -10 6 0 10 5 10 10 0 6 -4 10 -10 10 -5 0
-10 -4 -10 -10z"/>
<path d="M6585 2870 c-3 -6 6 -40 21 -77 14 -37 33 -90 41 -118 8 -27 17 -52
19 -54 6 -7 43 43 44 60 0 8 -5 20 -12 27 -6 6 -11 34 -10 61 1 45 -3 53 -34
80 -36 32 -58 39 -69 21z"/>
<path d="M5446 2852 c3 -11 1 -23 -5 -26 -14 -9 31 -61 138 -158 22 -21 41
-42 41 -46 0 -5 10 -21 23 -36 13 -15 29 -43 36 -63 11 -30 73 -103 88 -103 2
0 16 -11 31 -25 45 -43 132 -89 144 -77 11 11 -25 56 -149 188 -66 71 -101
111 -146 166 -53 66 -114 128 -125 128 -6 0 -12 3 -14 8 -2 4 -18 20 -35 36
-27 24 -31 26 -27 8z"/>
<path d="M0 2626 c0 -55 3 -66 13 -58 7 6 22 9 33 6 11 -3 26 1 32 9 9 11 2
24 -33 63 l-45 49 0 -69z"/>
<path d="M4322 2555 c0 -16 2 -22 5 -12 2 9 2 23 0 30 -3 6 -5 -1 -5 -18z"/>
<path d="M6694 2544 c3 -9 6 -19 6 -24 0 -14 46 -38 59 -31 17 11 3 40 -30 56
-36 19 -43 19 -35 -1z"/>
<path d="M240 2489 c-25 -5 -67 -14 -95 -21 -27 -7 -71 -11 -97 -9 l-48 2 0
-65 c0 -72 4 -75 57 -55 15 6 62 17 103 25 157 29 177 34 243 60 68 28 85 50
45 58 -50 10 -165 13 -208 5z"/>
<path d="M4321 2404 c0 -11 3 -14 6 -6 3 7 2 16 -1 19 -3 4 -6 -2 -5 -13z"/>
<path d="M5510 2406 c0 -2 7 -9 15 -16 12 -10 15 -10 15 4 0 9 -7 16 -15 16
-8 0 -15 -2 -15 -4z"/>
<path d="M6756 2383 c9 -36 23 -63 33 -63 4 0 13 11 19 24 9 21 8 26 -11 38
-48 31 -48 31 -41 1z"/>
<path d="M6900 2400 c0 -5 5 -10 11 -10 5 0 7 5 4 10 -3 6 -8 10 -11 10 -2 0
-4 -4 -4 -10z"/>
<path d="M5560 2370 c0 -5 5 -10 10 -10 6 0 10 5 10 10 0 6 -4 10 -10 10 -5 0
-10 -4 -10 -10z"/>
<path d="M0 2209 c0 -51 2 -59 19 -59 60 0 67 -36 16 -81 -33 -30 -35 -34 -35
-97 l0 -66 40 42 c23 23 49 42 59 42 24 0 64 -44 59 -65 -3 -17 -119 -85 -145
-85 -10 0 -13 -41 -13 -185 0 -102 4 -185 8 -185 9 0 44 36 57 59 6 10 -2 22
-25 41 -29 24 -31 29 -20 49 14 26 76 56 138 66 23 4 42 11 42 16 0 22 74 41
136 36 72 -7 170 21 225 65 41 32 36 46 -35 95 -45 31 -53 33 -135 33 -47 0
-96 3 -108 6 -27 8 -36 42 -18 71 21 32 19 45 -15 88 -17 21 -30 44 -30 51 0
15 -54 47 -63 37 -4 -3 -12 -1 -19 5 -7 6 -41 26 -75 46 l-63 35 0 -60z"/>
<path d="M4960 2219 c0 -5 5 -7 10 -4 6 3 10 8 10 11 0 2 -4 4 -10 4 -5 0 -10
-5 -10 -11z"/>
<path d="M6830 2181 c0 -5 5 -13 10 -16 6 -3 10 -2 10 4 0 5 -4 13 -10 16 -5
3 -10 2 -10 -4z"/>
<path d="M6926 2063 c-7 -8 -11 -9 -37 -12 -5 0 -7 -6 -4 -11 4 -6 12 -10 18
-9 36 4 48 -2 42 -20 -9 -28 41 -65 75 -55 14 4 36 7 50 6 36 -2 87 17 94 33
6 16 0 17 -169 38 -11 1 -26 10 -33 20 -14 18 -24 21 -36 10z"/>
<path d="M6860 1537 c0 -40 15 -50 25 -16 5 14 1 27 -9 37 -15 15 -16 13 -16
-21z"/>
<path d="M7285 851 c-8 -27 11 -54 21 -28 3 9 1 24 -4 33 -9 16 -10 15 -17 -5z"/>
<path d="M7243 790 c4 -14 7 -38 7 -55 1 -29 2 -29 11 -7 5 13 6 28 3 33 -3 6
0 17 7 25 6 8 9 17 5 21 -3 3 -6 1 -6 -7 0 -10 -4 -10 -17 1 -15 13 -16 11
-10 -11z"/>
<path d="M2030 536 c0 -27 2 -47 5 -44 9 9 12 66 4 80 -6 8 -9 -6 -9 -36z"/>
<path d="M2025 450 c-4 -6 -11 -25 -16 -42 -7 -26 -5 -34 13 -50 15 -13 22
-30 22 -53 0 -19 3 -35 7 -35 4 0 10 -8 12 -17 5 -20 -1 97 -7 137 -3 14 -5
35 -5 48 -1 23 -15 30 -26 12z"/>
<path d="M2572 330 c0 -14 2 -19 5 -12 2 6 2 18 0 25 -3 6 -5 1 -5 -13z"/>
<path d="M1982 260 c1 -18 6 -29 12 -27 6 3 9 11 7 18 -2 8 -4 20 -4 27 0 6
-4 12 -8 12 -4 0 -7 -14 -7 -30z"/>
<path d="M2625 240 c3 -5 8 -10 11 -10 2 0 4 5 4 10 0 6 -5 10 -11 10 -5 0 -7
-4 -4 -10z"/>
<path d="M2631 212 c0 -4 4 -16 8 -26 7 -19 8 -19 13 1 4 14 0 24 -8 27 -8 3
-14 2 -13 -2z"/>
<path d="M3102 198 c-18 -18 -3 -35 28 -30 17 2 30 9 30 14 0 5 -5 6 -12 2 -6
-4 -16 0 -23 9 -8 12 -15 13 -23 5z"/>
<path d="M3040 80 c0 -6 7 -10 15 -10 8 0 15 2 15 4 0 2 -7 6 -15 10 -8 3 -15
1 -15 -4z"/>
</g>
</svg>
